<svg id="svg" version="1.1" xmlns="http://www.w3.org/2000/svg" xmlns:xlink="http://www.w3.org/1999/xlink" width="400" height="400" viewBox="0, 0, 400,400"><g id="svgg"><path id="path0" d="M176.172 0.910 C 109.348 8.453,48.583 51.879,19.479 112.891 C -33.115 223.147,22.894 353.587,138.853 390.901 C 147.477 393.676,164.112 397.656,167.086 397.656 L 168.750 397.656 168.750 327.734 L 168.750 257.813 143.359 257.813 L 117.969 257.813 117.969 228.906 L 117.969 200.000 143.359 200.000 L 168.750 200.000 168.750 171.977 C 168.750 140.947,169.252 135.847,173.498 123.733 C 181.858 99.885,199.363 84.904,225.000 79.658 C 237.088 77.185,278.707 78.502,288.086 81.654 C 288.839 81.907,289.063 87.581,289.063 106.497 L 289.063 131.012 272.461 131.467 C 236.290 132.457,231.299 138.654,231.264 182.617 L 231.250 200.000 258.984 200.000 C 283.346 200.000,286.719 200.145,286.719 201.194 C 286.719 202.485,279.180 252.122,278.446 255.664 L 278.001 257.813 254.625 257.813 L 231.250 257.813 231.250 327.734 L 231.250 397.656 232.914 397.656 C 235.888 397.656,252.523 393.676,261.147 390.901 C 358.344 359.625,416.513 260.610,396.475 160.547 C 375.977 58.184,280.660 -10.885,176.172 0.910 " stroke="none" fill="#000000" fill-rule="evenodd"></path></g></svg>