<svg id="svg" version="1.1" xmlns="http://www.w3.org/2000/svg" xmlns:xlink="http://www.w3.org/1999/xlink" width="400" height="376.3676148796499" viewBox="0, 0, 400,376.3676148796499"><g id="svgg"><path id="path0" d="M1.435 0.678 C 1.204 1.051,16.641 22.263,35.738 47.816 C 54.835 73.369,89.365 119.560,112.473 150.461 C 135.580 181.363,154.591 206.945,154.720 207.309 C 154.849 207.674,120.188 245.518,77.696 291.408 C 35.204 337.298,0.306 375.187,0.146 375.606 C -0.015 376.025,7.351 376.368,16.513 376.368 L 33.172 376.368 65.453 341.575 C 83.208 322.440,113.954 289.256,133.779 267.834 C 153.603 246.411,170.114 228.810,170.469 228.721 C 170.825 228.631,175.392 234.342,180.617 241.412 C 185.843 248.482,210.657 281.739,235.760 315.316 L 281.400 376.365 340.807 376.367 C 388.217 376.367,400.037 376.147,399.338 375.274 C 398.856 374.672,378.451 347.396,353.993 314.661 C 329.534 281.926,293.324 233.463,273.526 206.967 C 253.728 180.470,237.284 158.394,236.984 157.909 C 236.430 157.013,239.434 153.686,295.405 93.227 C 312.735 74.507,334.943 50.501,344.756 39.880 C 354.569 29.259,366.681 16.190,371.671 10.838 C 376.661 5.486,380.744 0.849,380.744 0.535 C 380.744 0.220,373.168 0.069,363.909 0.200 L 347.073 0.438 284.915 67.591 C 250.728 104.525,222.334 135.158,221.818 135.664 C 221.019 136.446,169.142 68.195,125.188 8.534 L 118.900 -0.000 60.377 -0.000 C 28.189 -0.000,1.665 0.305,1.435 0.678 M110.762 31.291 C 113.136 34.540,146.166 78.753,184.162 129.540 C 222.158 180.328,257.196 227.199,262.025 233.698 C 266.853 240.197,288.451 269.061,310.019 297.840 C 331.587 326.619,349.234 350.349,349.234 350.575 C 349.234 350.800,336.729 350.968,321.444 350.948 L 293.654 350.912 275.605 326.659 C 265.678 313.321,231.633 267.746,199.950 225.383 C 168.267 183.020,121.936 121.068,96.993 87.712 C 72.049 54.356,51.641 26.687,51.641 26.224 C 51.641 25.704,62.100 25.383,79.043 25.383 L 106.446 25.383 110.762 31.291 " stroke="none" fill="#000000" fill-rule="evenodd"></path></g></svg>